# xmcd
#
# Track frame offsets:
#	150
#	12666
#	24116
#	37055
#	46648
#	57071
#	67322
#	78678
#	90653
#	100755
#	112158
#	123451
#	136359
#	145983
#	156524
#	169016
#	179627
#	191226
#	202182
#	214102
#	225646
#	236916
#	252002
#	261571
#	272755
#	284652
#	296799
#	306470
#	316854
#	328382
#
# Disc length: 4538 seconds
# Revision: 0
# Processed by: cddbd v1.5.2PL0 Copyright (c) Steve Scherf et al.
# Submitted via: dBpowerAMP V12.0
#
DISCID=e511b81e
DTITLE=Wanda Jackson - Right Or Wrong, Disc 4
DYEAR=1962
DGENRE=Pop\Rock*
TTITLE0=You Don't Know Baby
TTITLE1=Before I Lose My Mind
TTITLE2=The Tip Of My Fingers
TTITLE3=Let Me Talk To You
TTITLE4={Let's Stop} Kickin' Our Hearts Around
TTITLE5=Between The Window And The Phone
TTITLE6=If I Cried Every Time You Hurt Me
TTITLE7=I Misunderstood
TTITLE8=Let My Love Walk In
TTITLE9=To Tell You The Truth
TTITLE10=ToTell You The Truth
TTITLE11=The Greatest Actor
TTITLE12=You Bug Me Bad
TTITLE13=One Teardrop At A Time
TTITLE14=Funny How Time Slips Away
TTITLE15=These Empty Arms
TTITLE16=But I Was Lying
TTITLE17=We Haven't A Moment To Lose
TTITLE18=How Important Can It Be
TTITLE19=I May Never Get To Heaven
TTITLE20=The Things I Might Have Been
TTITLE21=Little Things Mean A Lot
TTITLE22=Have You Ever Been Lonely
TTITLE23=Please Love Me Forever
TTITLE24=Since I Met You Baby
TTITLE25=May You Never Be Alone
TTITLE26=Sympathy
TTITLE27=Whirlpool
TTITLE28=Pledging My Love
TTITLE29=What Am I Living For
EXTD=
EXTT0=
EXTT1=
EXTT2=
EXTT3=
EXTT4=
EXTT5=
EXTT6=
EXTT7=
EXTT8=
EXTT9=
EXTT10=
EXTT11=
EXTT12=
EXTT13=
EXTT14=
EXTT15=
EXTT16=
EXTT17=
EXTT18=
EXTT19=
EXTT20=
EXTT21=
EXTT22=
EXTT23=
EXTT24=
EXTT25=
EXTT26=
EXTT27=
EXTT28=
EXTT29=
PLAYORDER=
